# xmcd CD database file
#
# Track frame offsets:
#	150
#	19036
#	34530
#	47007
#	60978
#	77386
#	94105
#	116828
#	133079
#	148418
#	163680
#	173090
#	189329
#	208125
#	228658
#
# Disc length: 3232 seconds
#
# Revision: 0
# Processed by: cddbd v1.5.2PL0 Copyright (c) Steve Scherf et al.
# Submitted via: CDex 1.51
#
DISCID=c90c9e0f
DTITLE=Juliano Cézar - Assim vive um cowboy
DYEAR=2008
DGENRE=Country
TTITLE0=Cowboy Vagabundo
TTITLE1=Meu Amor Fugiu de Mim
TTITLE2=Sai dessa vida
TTITLE3=Do outro lado da rua
TTITLE4=Não vá pra california
TTITLE5=Faz ela feliz
TTITLE6=Bem aos olhos da lua
TTITLE7=Mete um vanerão ai
TTITLE8=Amor eu choro
TTITLE9=O cantos e o Peão
TTITLE10=Cascalho
TTITLE11=Revelação
TTITLE12=Rumo a goiânia
TTITLE13=Risca faca
TTITLE14=Chorei
EXTD=YEAR: 2008
EXTT0=
EXTT1=
EXTT2=
EXTT3=
EXTT4=
EXTT5=
EXTT6=
EXTT7=
EXTT8=
EXTT9=
EXTT10=
EXTT11=
EXTT12=
EXTT13=
EXTT14=
PLAYORDER=
